<svg xmlns="http://www.w3.org/2000/svg" xmlns:xlink="http://www.w3.org/1999/xlink" version="1.1" x="0px" y="0px" viewBox="0 0 90 112.5" style="enable-background:new 0 0 90 90;" xml:space="preserve"><g><path d="M68.2,12h-7.1v-0.2c0-1.7-1.4-3-3-3h-5.2c-0.9-3.4-4.1-6-7.8-6c-3.7,0-6.9,2.6-7.8,6h-5.4c-1.6,0-3,1.3-3,3V12h-7.1   c-4.4,0-8,3.6-8,8v59c0,4.4,3.6,8,8,8h46.5c4.4,0,8-3.6,8-8V20C76.2,15.6,72.6,12,68.2,12z M45.1,8.8c1.2,0,2.1,0.9,2.1,2.1   c0,1.2-0.9,2.1-2.1,2.1c-1.2,0-2.1-0.9-2.1-2.1C42.9,9.7,43.9,8.8,45.1,8.8z M70.2,78.9c0,1.1-0.9,2-2,2H21.8c-1.1,0-2-0.9-2-2V20   c0-1.1,0.9-2,2-2h7.1v0.1c0,1.7,1.4,3,3,3h26.3c1.6,0,3-1.3,3-3V18h7.1c1.1,0,2,0.9,2,2V78.9z"/></g><g><path d="M60.1,54h-21c-1.7,0-3-1.3-3-3s1.3-3,3-3h21c1.7,0,3,1.3,3,3S61.7,54,60.1,54z"/></g><g><path d="M60.1,37.8h-21c-1.7,0-3-1.3-3-3s1.3-3,3-3h21c1.7,0,3,1.3,3,3S61.7,37.8,60.1,37.8z"/></g><g><path d="M60.1,70.1h-21c-1.7,0-3-1.3-3-3s1.3-3,3-3h21c1.7,0,3,1.3,3,3S61.7,70.1,60.1,70.1z"/></g><g><path d="M29.9,54c-0.8,0-1.6-0.3-2.1-0.9c-0.6-0.6-0.9-1.3-0.9-2.1c0-0.8,0.3-1.6,0.9-2.1c1.1-1.1,3.1-1.1,4.2,0   c0.6,0.6,0.9,1.3,0.9,2.1c0,0.8-0.3,1.6-0.9,2.1C31.5,53.6,30.7,54,29.9,54z"/></g><g><path d="M29.9,37.8c-0.8,0-1.6-0.3-2.1-0.9c-0.6-0.6-0.9-1.3-0.9-2.1s0.3-1.6,0.9-2.1c1.1-1.1,3.1-1.1,4.2,0   c0.6,0.6,0.9,1.3,0.9,2.1s-0.3,1.6-0.9,2.1C31.5,37.5,30.7,37.8,29.9,37.8z"/></g><g><path d="M29.9,70.1c-0.8,0-1.6-0.3-2.1-0.9c-0.6-0.6-0.9-1.3-0.9-2.1s0.3-1.6,0.9-2.1c1.1-1.1,3.1-1.1,4.2,0   c0.6,0.6,0.9,1.3,0.9,2.1s-0.3,1.6-0.9,2.1C31.5,69.8,30.7,70.1,29.9,70.1z"/></g><text x="0" y="105" fill="#000000" font-size="5px" font-weight="bold" font-family="'Helvetica Neue', Helvetica, Arial-Unicode, Arial, Sans-serif">Created by Monika</text><text x="0" y="110" fill="#000000" font-size="5px" font-weight="bold" font-family="'Helvetica Neue', Helvetica, Arial-Unicode, Arial, Sans-serif">from the Noun Project</text></svg>