<svg xmlns="http://www.w3.org/2000/svg" data-name="Layer 3" viewBox="0 0 24 30" x="0px" y="0px"><title>gear</title><path d="M22.68,9.39,20.8,9.15a9.38,9.38,0,0,0-.57-1.37L21.4,6.29a1.49,1.49,0,0,0-.12-2L19.7,2.73a1.49,1.49,0,0,0-2-.13L16.22,3.77a9.45,9.45,0,0,0-1.37-.57l-.24-1.88A1.5,1.5,0,0,0,13.12,0H10.88A1.5,1.5,0,0,0,9.39,1.32L9.15,3.2a9.45,9.45,0,0,0-1.37.57L6.29,2.6a1.49,1.49,0,0,0-2,.12L2.73,4.3a1.49,1.49,0,0,0-.13,2L3.77,7.78A9.38,9.38,0,0,0,3.2,9.15l-1.88.24A1.5,1.5,0,0,0,0,10.88v2.24a1.5,1.5,0,0,0,1.32,1.49l1.88.24a9.38,9.38,0,0,0,.57,1.37L2.6,17.71a1.49,1.49,0,0,0,.12,2L4.3,21.27a1.49,1.49,0,0,0,2,.13l1.49-1.16a9.38,9.38,0,0,0,1.37.57l.24,1.88A1.5,1.5,0,0,0,10.88,24h2.24a1.5,1.5,0,0,0,1.49-1.32l.24-1.88a9.38,9.38,0,0,0,1.37-.57l1.49,1.16a1.49,1.49,0,0,0,2-.12l1.57-1.57a1.49,1.49,0,0,0,.13-2l-1.16-1.49a9.38,9.38,0,0,0,.57-1.37l1.88-.24A1.5,1.5,0,0,0,24,13.12V10.88A1.5,1.5,0,0,0,22.68,9.39ZM12,17a5,5,0,1,1,5-5A5,5,0,0,1,12,17Z"/><text x="0" y="39" fill="#000000" font-size="5px" font-weight="bold" font-family="'Helvetica Neue', Helvetica, Arial-Unicode, Arial, Sans-serif">Created by Sudarto Wasmad</text><text x="0" y="44" fill="#000000" font-size="5px" font-weight="bold" font-family="'Helvetica Neue', Helvetica, Arial-Unicode, Arial, Sans-serif">from the Noun Project</text></svg>