<svg xmlns="http://www.w3.org/2000/svg" data-name="Layer 1" viewBox="0 0 100 125" x="0px" y="0px"><title>07</title><path d="M13.14,80.68a4,4,0,0,0,1.11-.16L33.47,75a4,4,0,0,0,2.09-1.43L65.71,33.67a16,16,0,1,0-25.53-19.3L10,54.26a4,4,0,0,0-.81,2.4l-.08,20a4,4,0,0,0,4,4ZM51.84,16.1A8,8,0,0,1,59.7,28.3L47,18.69A7.94,7.94,0,0,1,51.84,16.1Zm-9.7,9L54.9,34.7,31.59,65.55,18.82,55.9ZM17.19,64.69l6.38,4.82-6.41,1.84Z"/><path d="M86.86,84H29a4,4,0,1,0,0,8H86.86a4,4,0,0,0,0-8Z"/><text x="0" y="115" fill="#000000" font-size="5px" font-weight="bold" font-family="'Helvetica Neue', Helvetica, Arial-Unicode, Arial, Sans-serif">Created by Rajive</text><text x="0" y="120" fill="#000000" font-size="5px" font-weight="bold" font-family="'Helvetica Neue', Helvetica, Arial-Unicode, Arial, Sans-serif">from the Noun Project</text></svg>