<svg xmlns="http://www.w3.org/2000/svg" viewBox="0 0 24 30" x="0px" y="0px"><title>outside arrow</title><path d="M18,23H4a3,3,0,0,1-3-3V6A3,3,0,0,1,4,3h8a1,1,0,0,1,0,2H4A1,1,0,0,0,3,6V20a1,1,0,0,0,1,1H18a1,1,0,0,0,1-1V12a1,1,0,0,1,2,0v8A3,3,0,0,1,18,23Z"/><polygon points="16 2 22 2 22 8 16 2"/><path d="M22,9a1,1,0,0,1-.71-.29l-6-6A1,1,0,0,1,16,1h6a1,1,0,0,1,1,1V8a1,1,0,0,1-1,1ZM18.41,3,21,5.59V3Z"/><path d="M11,14a1,1,0,0,1-.71-1.71l11-11a1,1,0,0,1,1.41,1.41l-11,11A1,1,0,0,1,11,14Z"/><text x="0" y="39" fill="#000000" font-size="5px" font-weight="bold" font-family="'Helvetica Neue', Helvetica, Arial-Unicode, Arial, Sans-serif">Created by Sudarto Wasmad</text><text x="0" y="44" fill="#000000" font-size="5px" font-weight="bold" font-family="'Helvetica Neue', Helvetica, Arial-Unicode, Arial, Sans-serif">from the Noun Project</text></svg>